<svg xmlns="http://www.w3.org/2000/svg" class="logo__logo logo__logo__nichols" viewBox="0 0 940 104">
            <path class="st0" fill="#fff" d="M 61.4 44.5 V 19.6 h 6.8 V 81 h -6.8 V 50.9 H 30 V 81 h -6.8 V 19.6 H 30 v 24.9 h 31.4 Z m 45 19.1 L 99 81 h -7.5 l 28.4 -64.4 L 147.5 81 h -7.6 l -7.3 -17.4 h -26.2 Z m 13.3 -31 l -10.5 24.6 H 130 l -10.3 -24.6 Z M 177.3 81 h -6.8 V 19.6 h 8.9 c 11.7 0 22.5 3.1 22.5 16.9 c 0 9.5 -5.9 16.1 -15.4 16.9 L 206 81 h -8.4 L 179 54 h -1.7 v 27 Z m 0 -33 h 2.1 c 7.7 0 15.6 -1.5 15.6 -11 c 0 -10.1 -7.4 -11.1 -15.6 -11.1 h -2 V 48 h -0.1 Z m 72.9 18.4 l 17.5 -46.8 h 7.4 l -24.9 65.1 l -24.9 -65.1 h 7.4 l 17.5 46.8 Z m 47.9 -46.8 H 330 V 26 h -25 v 18.2 h 24.3 v 6.4 H 305 v 24.1 h 25 v 6.4 h -31.9 V 19.6 Z m 54.3 0 h 7.9 L 375.9 47 l 15.6 -27.4 h 7.9 l -20.1 35 V 81 h -6.8 V 54.6 l -20.1 -35 Z M 464.3 17 l 47.9 50.2 V 19.6 h 6.8 v 64.2 l -47.9 -50.1 V 81 h -6.8 V 17 Z m 90.9 64 h -6.8 V 19.6 h 6.8 V 81 Z m 75.6 -48 c -4.9 -5.1 -11.7 -8.1 -18.7 -8.1 c -13.7 0 -24.8 11.9 -24.8 25.4 s 11.2 25.4 24.9 25.4 c 6.9 0 13.7 -3.3 18.6 -8.1 v 8.5 c -5.3 3.8 -11.8 6 -18.3 6 c -17.3 0 -32 -14.1 -32 -31.5 c 0 -17.6 14.4 -32 32 -32 c 6.8 0 12.9 2 18.3 6 V 33 Z m 66.4 11.5 V 19.6 h 6.8 V 81 h -6.8 V 50.9 h -31.4 V 81 H 659 V 19.6 h 6.9 v 24.9 h 31.3 Z m 96.8 5.9 c 0 17.7 -14.5 31.7 -32 31.7 s -32 -14 -32 -31.7 c 0 -17.6 14.5 -31.9 32 -31.9 s 32 14.3 32 31.9 Z m -57.1 -0.1 c 0 13.8 11.2 25.4 25.2 25.4 c 13.9 0 25.2 -11.6 25.2 -25.4 c 0 -13.9 -11.1 -25.4 -25.2 -25.4 c -14.2 0 -25.2 11.5 -25.2 25.4 Z m 89.6 24.3 h 17 V 81 h -23.8 V 19.6 h 6.8 v 55 Z" />
            <path class="st0 js-hn-logo-s" fill="#fff" d="M 894.3 31.5 c -2.4 -4.2 -5.4 -6.7 -10.6 -6.7 c -5.4 0 -10.2 3.9 -10.2 9.5 c 0 5.3 5.5 7.7 9.6 9.6 l 4.1 1.8 c 8 3.5 14.8 7.5 14.8 17.3 c 0 10.8 -8.6 19 -19.3 19 c -9.9 0 -17.2 -6.4 -19.1 -15.9 l 6.7 -1.9 c 0.9 6.3 5.7 11.4 12.3 11.4 s 12.6 -5.1 12.6 -12 c 0 -7.2 -5.6 -9.6 -11.3 -12.2 l -3.8 -1.6 c -7.2 -3.3 -13.4 -6.9 -13.4 -15.7 c 0 -9.5 8.1 -15.6 17.2 -15.6 c 6.8 0 12.6 3.5 15.9 9.5 l -5.5 3.5 Z" />
            <path class="st0 logo__logo__nicholo js-hn-logo-o" fill="#fff" d="M 925 50.4 c 0 17.7 -14.5 31.7 -32 31.7 s -32 -14 -32 -31.7 c 0 -17.6 14.5 -31.9 32 -31.9 s 32 14.3 32 31.9 Z m -57.1 -0.1 c 0 13.8 11.2 25.4 25.2 25.4 c 13.9 0 25.2 -11.6 25.2 -25.4 c 0 -13.9 -11.1 -25.4 -25.2 -25.4 c -14.2 0 -25.2 11.5 -25.2 25.4 Z" />
        </svg>